<svg xmlns="http://www.w3.org/2000/svg" height="237.906" width="173.667"><g stroke="#3e4147" stroke-linecap="round" stroke-linejoin="round" stroke-width="3" transform="translate(-5967.133 -2975.582)"><path d="M6068.967 3196.407v12.581a3.009 3.009 0 01-3 3h-24a3.009 3.009 0 01-3-3v-12.581" fill="#a57f53"/><path d="M6053.967 3196.654c50.334 0 85.334-8.333 85.334-8.333-18.334-7.333-37.334-25-37.334-25 16.667 1 26.334-9 26.334-9-20-2.667-32-22.257-32-22.257 14.333 3.742 29.666-3.076 29.666-3.076-16.587-4.667-39-28-39-28 8 4.666 24-1.334 24-1.334-18.333-8-35.666-35.666-35.666-35.666 15 3.666 16-2.667 16-2.667-16-7.667-37.334-64.707-37.334-64.707s-21.333 57.04-37.333 64.707c0 0 1 6.333 16 2.667 0 0-17.333 27.666-35.667 35.666 0 0 16 6 24 1.334 0 0-22.413 23.333-39 28 0 0 15.334 6.818 29.667 3.076 0 0-12 19.59-32 22.257 0 0 9.667 10 26.333 9 0 0-19 17.667-37.333 25 0 0 35 8.333 85.333 8.333z" fill="#abb833"/><circle cx="6060.939" cy="3037.079" fill="#fdbe2a" r="7.833"/><circle cx="6042.16" cy="3055.348" fill="#85c3e9" r="7.833"/><circle cx="6063.545" cy="3068.648" fill="#c5a7d4" r="7.833"/><circle cx="6034.326" cy="3088.801" fill="#f3783c" r="7.833"/><circle cx="6068.772" cy="3100.218" fill="#f3783c" r="7.833"/><circle cx="6038.967" cy="3115.885" fill="#fdbe2a" r="7.833"/><circle cx="6071.378" cy="3133.073" fill="#f3783c" r="7.833"/><circle cx="6019.814" cy="3148.74" fill="#c5a7d4" r="7.833"/><circle cx="6045.272" cy="3156.573" fill="#f3783c" r="7.833"/><circle cx="6063.545" cy="3178.154" fill="none" r="7.833"/><circle cx="6016.633" cy="3178.154" fill="#85c3e9" r="7.833"/><circle cx="6084.439" cy="3157.376" fill="#85c3e9" r="7.833"/><circle cx="6096.107" cy="3178.154" fill="#c5a7d4" r="7.833"/><g fill="none"><path d="M6053.191 3038.179c-7 3.16-14.43 6.591-21.89 7.809M6067.246 3027.352a5.273 5.273 0 01-1.821 3.311M6055.036 3069.37q-1.589.765-3.231 1.462c-6.072 2.567-11.952 5.287-18.266 7.261-3.881 1.214-9.072 2.875-12.945 2M6080.967 3053.654c-4.537 2.7-8.834 5.61-13.2 8.406M6062.378 3095.7a139.086 139.086 0 01-18.386 7.154c-6.846 2.137-13.747 5.489-20.866 6.487-2.576.361-6.492 1.9-10.912-.021M6086.967 3078.988a82.433 82.433 0 01-18.187 13.41M6095.3 3109.321c-3.893 4.423-10.56 7.045-15.911 9.026-10.552 3.905-21.556 6.535-32.232 10.033-7.389 2.42-35.776 7.632-38.357 7.614M6016.023 3155.594a141.427 141.427 0 01-16.477-2.094c-2.173-.388-5.866-1.6-7.245-1.846M6037.439 3154.982c-2.4.181-4.8.35-7.183.52-2.429.172-4.76.265-7.034.283M6101.684 3138.993c-14.813 9.071-31.909 12.68-49.161 14.621M6008.952 3176.666a89.258 89.258 0 01-16.651-2.2M6056.048 3175.884a523 523 0 01-8.982.439c-5.758.239-14.019.608-22.7.665M6104.3 3164.654c-3.3 3.621-8.575 5.052-13.139 6.286a139.739 139.739 0 01-20.6 3.74"/></g><path d="M6053.967 2977.082l3.788 7.675 8.47 1.231-6.129 5.974 1.447 8.435-7.575-3.983-7.576 3.983 1.447-8.435-6.128-5.974 8.47-1.231z" fill="#fdbe2a"/></g></svg>
